<svg xmlns="http://www.w3.org/2000/svg" width="560" height="60" viewBox="0 0 560 60" role="img" aria-label="005 — SIGNATURE REPOS">
<title>Signature Repos</title>
<defs><linearGradient id="ln" x1="0" y1="0" x2="1" y2="0">
  <stop offset="0" stop-color="#D8B15F" stop-opacity="0.7"/><stop offset="1" stop-color="#D8B15F" stop-opacity="0"/>
</linearGradient><filter id="g" x="-3" y="-3" width="7" height="7"><feGaussianBlur stdDeviation="2.2"/></filter></defs>
<path d="M3.7 41.8 10.4 23.8H12.3L5.6 41.8Z M40 39.2Q38.7 39.2 37.7 38.8Q36.7 38.3 36.1 37.3Q35.5 36.4 35.2 35.1Q34.9 33.7 34.9 32Q34.9 30.3 35.2 29Q35.5 27.6 36.1 26.7Q36.7 25.8 37.7 25.3Q38.7 24.8 40 24.8Q41.3 24.8 42.3 25.3Q43.3 25.8 43.9 26.7Q44.5 27.6 44.8 29Q45.1 30.3 45.1 32Q45.1 33.7 44.8 35.1Q44.5 36.4 43.9 37.3Q43.3 38.3 42.3 38.8Q41.3 39.2 40 39.2ZM40 37.4Q41.5 37.4 42.2 36.3Q42.8 35.1 42.8 33.2V30.8Q42.8 28.9 42.2 27.8Q41.5 26.6 40 26.6Q39.2 26.6 38.7 26.9Q38.2 27.2 37.8 27.8Q37.5 28.3 37.3 29.1Q37.2 29.9 37.2 30.8V33.2Q37.2 34.2 37.3 35Q37.5 35.7 37.8 36.3Q38.2 36.8 38.7 37.1Q39.2 37.4 40 37.4ZM40 33.2Q39.3 33.2 39 32.9Q38.8 32.6 38.8 32.2V31.8Q38.8 31.4 39 31.1Q39.3 30.8 40 30.8Q40.7 30.8 41 31.1Q41.2 31.4 41.2 31.8V32.2Q41.2 32.6 41 32.9Q40.7 33.2 40 33.2Z M56 39.2Q54.7 39.2 53.7 38.8Q52.7 38.3 52.1 37.3Q51.5 36.4 51.2 35.1Q50.9 33.7 50.9 32Q50.9 30.3 51.2 29Q51.5 27.6 52.1 26.7Q52.7 25.8 53.7 25.3Q54.7 24.8 56 24.8Q57.3 24.8 58.3 25.3Q59.3 25.8 59.9 26.7Q60.5 27.6 60.8 29Q61.1 30.3 61.1 32Q61.1 33.7 60.8 35.1Q60.5 36.4 59.9 37.3Q59.3 38.3 58.3 38.8Q57.3 39.2 56 39.2ZM56 37.4Q57.5 37.4 58.2 36.3Q58.8 35.1 58.8 33.2V30.8Q58.8 28.9 58.2 27.8Q57.5 26.6 56 26.6Q55.2 26.6 54.7 26.9Q54.2 27.2 53.8 27.8Q53.5 28.3 53.3 29.1Q53.2 29.9 53.2 30.8V33.2Q53.2 34.2 53.3 35Q53.5 35.7 53.8 36.3Q54.2 36.8 54.7 37.1Q55.2 37.4 56 37.4ZM56 33.2Q55.3 33.2 55 32.9Q54.8 32.6 54.8 32.2V31.8Q54.8 31.4 55 31.1Q55.3 30.8 56 30.8Q56.7 30.8 57 31.1Q57.2 31.4 57.2 31.8V32.2Q57.2 32.6 57 32.9Q56.7 33.2 56 33.2Z M76.2 27H69.9L69.5 31.9H69.7Q70.2 31.1 70.8 30.6Q71.5 30.1 72.7 30.1Q73.6 30.1 74.4 30.4Q75.1 30.7 75.7 31.3Q76.3 31.9 76.6 32.7Q76.9 33.5 76.9 34.5Q76.9 35.5 76.6 36.4Q76.3 37.3 75.6 37.9Q75 38.5 74 38.9Q73.1 39.2 71.9 39.2Q71 39.2 70.2 39Q69.5 38.8 68.9 38.5Q68.4 38.1 67.9 37.7Q67.5 37.2 67.2 36.7L68.8 35.5Q69.1 35.9 69.4 36.2Q69.7 36.6 70 36.8Q70.4 37.1 70.9 37.2Q71.3 37.4 71.9 37.4Q73.2 37.4 73.9 36.6Q74.6 35.9 74.6 34.7V34.6Q74.6 33.3 73.9 32.7Q73.2 32 71.9 32Q71 32 70.5 32.3Q69.9 32.7 69.5 33.1L67.7 32.8L68.2 25H76.2Z M98 33.9V32H110V33.9Z" fill="#8A8478"/><path d="M135.9 39.2Q134.1 39.2 132.8 38.6Q131.6 38 130.8 36.9L132.2 35.5Q133 36.5 133.9 36.9Q134.8 37.4 136 37.4Q137.3 37.4 138 36.8Q138.7 36.2 138.7 35.1Q138.7 34.2 138.2 33.7Q137.7 33.2 136.4 33L134.9 32.7Q133.9 32.6 133.2 32.2Q132.5 31.8 132.1 31.3Q131.7 30.8 131.5 30.2Q131.3 29.5 131.3 28.8Q131.3 26.9 132.6 25.8Q133.9 24.8 136.1 24.8Q137.8 24.8 138.9 25.3Q140.1 25.9 140.8 26.8L139.4 28.2Q138.8 27.5 138.1 27.1Q137.3 26.7 136.1 26.7Q134.9 26.7 134.2 27.2Q133.6 27.7 133.6 28.7Q133.6 29.6 134.1 30.1Q134.6 30.6 135.9 30.8L137.4 31.1Q139.2 31.4 140.1 32.4Q141 33.5 141 34.9Q141 35.9 140.6 36.7Q140.3 37.5 139.7 38.1Q139 38.6 138.1 38.9Q137.1 39.2 135.9 39.2Z M147.6 39V37.3H150.9V26.7H147.6V25H156.4V26.7H153.1V37.3H156.4V39Z M170.6 37.1H170.5Q170.3 37.5 170 37.9Q169.8 38.3 169.4 38.6Q169 38.9 168.5 39.1Q168 39.2 167.3 39.2Q165.1 39.2 164 37.4Q162.9 35.5 162.9 32.1Q162.9 28.6 164.2 26.7Q165.5 24.8 168.1 24.8Q169.1 24.8 169.9 25.1Q170.6 25.4 171.2 25.8Q171.7 26.3 172.1 26.9Q172.4 27.6 172.6 28.3L170.6 28.9Q170.5 28.5 170.3 28.1Q170.1 27.7 169.8 27.3Q169.5 27 169.1 26.8Q168.7 26.7 168.1 26.7Q166.6 26.7 166 27.8Q165.3 28.9 165.3 30.8V33.1Q165.3 34 165.5 34.8Q165.6 35.6 165.9 36.2Q166.3 36.8 166.8 37.1Q167.3 37.4 168.1 37.4Q169.3 37.4 169.9 36.7Q170.6 35.9 170.6 34.8V33.5H167.9V31.9H172.6V39H170.6Z M181.6 28.3H181.4V39H179.4V25H182.3L186.4 35.8H186.6V25H188.6V39H185.7Z M203.2 39 202.2 35.3H197.7L196.7 39H194.4L198.5 25H201.5L205.6 39ZM200 27.3H199.9L198.2 33.4H201.8Z M217.1 26.9V39H214.9V26.9H210.5V25H221.5V26.9Z M229.6 25V33.6Q229.6 34.5 229.7 35.2Q229.7 35.9 230 36.4Q230.2 36.9 230.7 37.1Q231.2 37.4 232 37.4Q232.8 37.4 233.3 37.1Q233.8 36.9 234 36.4Q234.3 35.9 234.3 35.2Q234.4 34.5 234.4 33.6V25H236.6V33.2Q236.6 34.7 236.4 35.8Q236.3 37 235.8 37.7Q235.3 38.5 234.4 38.9Q233.5 39.2 232 39.2Q230.5 39.2 229.6 38.9Q228.7 38.5 228.2 37.7Q227.7 37 227.6 35.8Q227.4 34.7 227.4 33.2V25Z M245.9 39H243.7V25H248.9Q250.9 25 251.9 26.2Q253 27.3 253 29.2Q253 30.8 252.2 31.9Q251.4 32.9 250 33.2L253.2 39H250.7L247.8 33.4H245.9ZM248.6 31.6Q250.7 31.6 250.7 29.7V28.8Q250.7 26.9 248.6 26.9H245.9V31.6Z M259.7 39V25H268.5V26.9H262V31H268.2V32.9H262V37.1H268.5V39Z M293.9 39H291.7V25H296.9Q298.9 25 299.9 26.2Q301 27.3 301 29.2Q301 30.8 300.2 31.9Q299.4 32.9 298 33.2L301.2 39H298.7L295.8 33.4H293.9ZM296.6 31.6Q298.7 31.6 298.7 29.7V28.8Q298.7 26.9 296.6 26.9H293.9V31.6Z M307.7 39V25H316.5V26.9H310V31H316.2V32.9H310V37.1H316.5V39Z M323.7 39V25H328.9Q330.9 25 331.9 26.2Q333 27.3 333 29.2Q333 31.2 331.9 32.3Q330.9 33.4 328.9 33.4H325.9V39ZM325.9 31.6H328.6Q330.6 31.6 330.6 29.7V28.8Q330.6 26.9 328.6 26.9H325.9Z M344 39.2Q342.7 39.2 341.7 38.8Q340.7 38.3 340.1 37.3Q339.5 36.4 339.2 35.1Q338.9 33.7 338.9 32Q338.9 30.3 339.2 29Q339.5 27.6 340.1 26.7Q340.7 25.8 341.7 25.3Q342.7 24.8 344 24.8Q345.3 24.8 346.3 25.3Q347.3 25.8 347.9 26.7Q348.5 27.6 348.8 29Q349.1 30.3 349.1 32Q349.1 33.7 348.8 35.1Q348.5 36.4 347.9 37.3Q347.3 38.3 346.3 38.8Q345.3 39.2 344 39.2ZM344 37.4Q345.5 37.4 346.1 36.2Q346.7 35.1 346.7 33.2V30.8Q346.7 28.9 346.1 27.8Q345.5 26.7 344 26.7Q342.5 26.7 341.9 27.8Q341.3 28.9 341.3 30.8V33.2Q341.3 35.1 341.9 36.2Q342.5 37.4 344 37.4Z M359.9 39.2Q358.1 39.2 356.8 38.6Q355.6 38 354.8 36.9L356.2 35.5Q357 36.5 357.9 36.9Q358.8 37.4 360 37.4Q361.3 37.4 362 36.8Q362.7 36.2 362.7 35.1Q362.7 34.2 362.2 33.7Q361.7 33.2 360.4 33L358.9 32.7Q357.9 32.6 357.2 32.2Q356.5 31.8 356.1 31.3Q355.7 30.8 355.5 30.2Q355.3 29.5 355.3 28.8Q355.3 26.9 356.6 25.8Q357.9 24.8 360.1 24.8Q361.8 24.8 362.9 25.3Q364.1 25.9 364.8 26.8L363.4 28.2Q362.8 27.5 362 27.1Q361.3 26.7 360.1 26.7Q358.9 26.7 358.2 27.2Q357.6 27.7 357.6 28.7Q357.6 29.6 358.1 30.1Q358.6 30.6 359.9 30.8L361.4 31.1Q363.2 31.4 364.1 32.4Q365 33.5 365 34.9Q365 35.9 364.6 36.7Q364.3 37.5 363.6 38.1Q363 38.6 362.1 38.9Q361.1 39.2 359.9 39.2Z" fill="#D8B15F"/>
<rect x="392.0" y="32.5" width="168.0" height="1" fill="url(#ln)"/>
<circle cx="392.0" cy="33" r="5" fill="#FF7A1A" opacity="0.35" filter="url(#g)"><animate attributeName="opacity" values="0.15;0.5;0.15" dur="2.8s" repeatCount="indefinite"/></circle>
<circle cx="392.0" cy="33" r="2.4" fill="#FF7A1A"/>
</svg>
